#!OML:ASF E:\Style4\Style4.ASF
:FULLY-SPECIFIED
:DEGREES
1438
root 0.152741 17.6283 -2.66812 0.466806 -13.5382 6.67873
lowerback 12.1955 1.21251 2.60742
upperback 5.7345 1.91245 3.69053
thorax -0.872895 0.935586 2.12622
lowerneck 2.25051 -4.10244 -4.77331
upperneck 3.40029 -5.4272 -6.741
head 0.608971 -2.81014 -1.2794
rclavicle 2.3059e-014 -1.43125e-014
rhumerus -357.349 -4.32544 -435.555
rradius 90.8039
rwrist -5.26992
rhand -34.3539 20.5008
rfingers 7.12502
rthumb -7.52113 -9.34553
lclavicle 2.3059e-014 -1.43125e-014
lhumerus -6.18377 -11.8308 62.1444
lradius 99.5587
lwrist -4.15915
lhand -22.0072 28.097
lfingers 7.12502
lthumb 4.40185 58.0312
rfemur -24.2875 7.21048 9.97772
rtibia 39.149
rfoot -17.0605 -5.52983
rtoes -12.4999
lfemur -14.0133 9.38717 -27.2793
ltibia 31.614
lfoot -21.7762 12.6966
ltoes -7.40951
1439
root 0.141503 17.6132 -2.66888 0.461352 -13.703 6.40938
lowerback 12.2078 1.05784 2.70494
upperback 5.84428 1.71293 3.71398
thorax -0.758231 0.837439 2.1227
lowerneck 2.30087 -3.97615 -4.77445
upperneck 3.36322 -5.26366 -6.87284
head 0.587692 -2.72713 -1.31858
rclavicle 3.33958e-014 2.70347e-014
rhumerus -357.931 -5.47862 -435.638
rradius 90.9151
rwrist -5.53223
rhand -34.3027 20.2968
rfingers 7.12502
rthumb -7.47177 -9.55123
lclavicle 3.33958e-014 2.70347e-014
lhumerus -5.42786 -11.4985 62.2442
lradius 99.6036
lwrist -4.09929
lhand -22.2312 28.6443
lfingers 7.12502
lthumb 4.18554 58.5829
rfemur -24.3696 7.15839 10.3488
rtibia 39.3561
rfoot -17.1559 -5.39007
rtoes -12.4959
lfemur -14.2545 9.43967 -26.9486
ltibia 32.1895
lfoot -21.9597 12.812
ltoes -7.60352
1440
root 0.128975 17.5985 -2.67039 0.423745 -13.8566 6.23942
lowerback 12.1626 0.937977 2.67954
upperback 5.9841 1.54136 3.70436
thorax -0.584682 0.751996 2.15116
lowerneck 2.40171 -3.86619 -4.81965
upperneck 3.32809 -5.12706 -6.94423
head 0.561185 -2.65666 -1.33065
rclavicle -2.70347e-014 -1.74931e-014
rhumerus -358.484 -6.78662 -435.689
rradius 90.9123
rwrist -5.51942
rhand -34.1934 20.0848
rfingers 7.12502
rthumb -7.36623 -9.76701
lclavicle -2.70347e-014 -1.74931e-014
lhumerus -4.69509 -11.2089 62.4449
lradius 99.6918
lwrist -4.11298
lhand -22.4345 29.1151
lfingers 7.12502
lthumb 3.9892 59.0575
rfemur -24.443 7.04969 10.6206
rtibia 39.5465
rfoot -17.2268 -5.23094
rtoes -12.6277
lfemur -14.4794 9.51823 -26.7146
ltibia 32.7741
lfoot -22.1747 12.9006
ltoes -7.7133
1441
root 0.111105 17.5839 -2.67245 0.327566 -14.1838 6.0998
lowerback 12.3077 0.844074 2.48933
upperback 6.05986 1.39897 3.70283
thorax -0.585851 0.676493 2.27337
lowerneck 2.58947 -3.69332 -4.97337
upperneck 3.24744 -4.91924 -6.99853
head 0.510317 -2.5483 -1.31724
rclavicle 0 9.54166e-015
rhumerus -359.146 -7.92731 -435.622
rradius 90.9247
rwrist -5.51716
rhand -34.0988 19.8561
rfingers 7.12502
rthumb -7.27496 -9.99879
lclavicle 0 9.54166e-015
lhumerus -4.18562 -10.8523 62.6471
lradius 99.7531
lwrist -4.11132
lhand -22.6758 29.4844
lfingers 7.12502
lthumb 3.75619 59.431
rfemur -24.5 7.10964 10.8877
rtibia 39.7316
rfoot -17.2669 -5.10676
rtoes -13.0257
lfemur -14.6204 9.72283 -26.4746
ltibia 33.3277
lfoot -22.5287 12.9414
ltoes -7.22777
1442
root 0.0944102 17.5727 -2.67436 0.257826 -14.4889 5.93263
lowerback 12.4457 0.729706 2.31012
upperback 6.11844 1.23081 3.69233
thorax -0.598998 0.588357 2.38374
lowerneck 2.74939 -3.50072 -5.09166
upperneck 3.17828 -4.68183 -7.09413
head 0.466025 -2.42584 -1.32394
rclavicle 1.43125e-014 4.6118e-014
rhumerus -359.856 -8.95678 -435.402
rradius 90.9714
rwrist -5.54227
rhand -34.3145 19.6132
rfingers 7.12502
rthumb -7.48315 -10.2345
lclavicle 1.43125e-014 4.6118e-014
lhumerus -3.71544 -10.5022 62.8544
lradius 99.7946
lwrist -4.05994
lhand -22.7772 29.6947
lfingers 7.12502
lthumb 3.65829 59.6431
rfemur -24.5634 7.13408 11.177
rtibia 39.9286
rfoot -17.3538 -4.95926
rtoes -13.1418
lfemur -14.7516 9.93259 -26.212
ltibia 33.8252
lfoot -22.8005 12.9336
ltoes -6.95001
1443
root 0.0766952 17.5612 -2.67557 0.154182 -14.7814 5.83822
lowerback 12.5564 0.624782 2.00687
upperback 6.20742 1.05823 3.66166
thorax -0.566443 0.495855 2.54462
lowerneck 2.83984 -3.30931 -5.19449
upperneck 3.15004 -4.43786 -7.16117
head 0.44616 -2.30284 -1.32682
rclavicle -4.69132e-014 5.725e-014
rhumerus -360.48 -10.0193 -435.046
rradius 90.8727
rwrist -5.33989
rhand -34.3379 19.4381
rfingers 7.12502
rthumb -7.5057 -10.4088
lclavicle -4.69132e-014 5.725e-014
lhumerus -3.14537 -10.1441 63.0554
lradius 99.7471
lwrist -3.87644
lhand -22.7799 30.0898
lfingers 7.12502
lthumb 3.6556 60.0382
rfemur -24.6007 7.1402 11.3815
rtibia 40.12
rfoot -17.4335 -4.71805
rtoes -12.8806
lfemur -14.8493 10.097 -26.028
ltibia 34.3024
lfoot -22.9816 12.9873
ltoes -6.94056
1444
root 0.0559768 17.5469 -2.67724 0.0226981 -15.1425 5.70437
lowerback 12.7366 0.555276 1.71367
upperback 6.29796 0.935074 3.62218
thorax -0.569194 0.4278 2.68432
lowerneck 2.80594 -3.13299 -5.29615
upperneck 3.24647 -4.19449 -7.2211
head 0.48533 -2.18805 -1.33224
rclavicle -1.82882e-014 -9.54166e-015
rhumerus -361.126 -11.0891 -434.581
rradius 90.7224
rwrist -5.25581
rhand -34.2057 19.1837
rfingers 7.12502
rthumb -7.37808 -10.6677
lclavicle -1.82882e-014 -9.54166e-015
lhumerus -2.59674 -9.80117 63.2643
lradius 99.6637
lwrist -3.72066
lhand -22.7515 30.7766
lfingers 7.12502
lthumb 3.68308 60.7245
rfemur -24.6219 7.2171 11.6534
rtibia 40.3025
rfoot -17.476 -4.52456
rtoes -13.1149
lfemur -14.9163 10.3256 -25.7836
ltibia 34.8035
lfoot -23.2176 13.0424
ltoes -6.78603
